<?xml version="1.0" encoding="UTF-8"?>
<!DOCTYPE svg PUBLIC "-//W3C//DTD SVG 1.1//EN" "http://www.w3.org/Graphics/SVG/1.1/DTD/svg11.dtd">
<svg xmlns="http://www.w3.org/2000/svg" version="1.1" width="1666px" height="1646px" style="shape-rendering:geometricPrecision; text-rendering:geometricPrecision; image-rendering:optimizeQuality; fill-rule:evenodd; clip-rule:evenodd" xmlns:xlink="http://www.w3.org/1999/xlink">
<g><path style="opacity:0.993" fill="#d9d9d9" d="M 792.5,-0.5 C 819.5,-0.5 846.5,-0.5 873.5,-0.5C 1124.35,16.9938 1327.85,123.327 1484,318.5C 1612.24,488.034 1668.57,679.368 1653,892.5C 1630.49,1119.35 1533.33,1306.52 1361.5,1454C 1220.11,1570.66 1057.45,1634.49 873.5,1645.5C 846.5,1645.5 819.5,1645.5 792.5,1645.5C 541.648,1628.01 338.148,1521.67 182,1326.5C 53.759,1156.97 -2.57436,965.632 13,752.5C 35.5062,525.65 132.673,338.484 304.5,191C 445.888,74.3439 608.554,10.5106 792.5,-0.5 Z"/></g>
<g><path style="opacity:1" fill="#f1f1f1" d="M 801.5,54.5 C 1011.49,49.584 1194.49,116.417 1350.5,255C 1499.85,394.55 1582.68,566.716 1599,771.5C 1609.64,988.955 1543.3,1178.62 1400,1340.5C 1260.56,1489.79 1088.4,1572.62 883.5,1589C 666.396,1599.86 477.062,1533.53 315.5,1390C 144.331,1227.98 61.1639,1028.48 66,791.5C 77.9026,578.895 161.069,400.061 315.5,255C 453.481,131.213 615.481,64.3795 801.5,54.5 Z"/></g>
<g><path style="opacity:1" fill="#727272" d="M 1052.5,456.5 C 1028.76,456.177 1005.09,456.511 981.5,457.5C 992.981,456.168 1004.81,455.501 1017,455.5C 1029,455.5 1040.84,455.833 1052.5,456.5 Z"/></g>
<g><path style="opacity:1" fill="#c7c7c7" d="M 527.5,456.5 C 505.833,456.5 484.167,456.5 462.5,456.5C 462.5,620.5 462.5,784.5 462.5,948.5C 461.5,784.334 461.167,620.001 461.5,455.5C 483.673,455.169 505.673,455.503 527.5,456.5 Z"/></g>
<g><path style="opacity:1" fill="#000000" d="M 527.5,456.5 C 527.5,601.167 527.5,745.833 527.5,890.5C 608.5,890.5 689.5,890.5 770.5,890.5C 770.5,909.833 770.5,929.167 770.5,948.5C 667.833,948.5 565.167,948.5 462.5,948.5C 462.5,784.5 462.5,620.5 462.5,456.5C 484.167,456.5 505.833,456.5 527.5,456.5 Z"/></g>
<g><path style="opacity:1" fill="#000000" d="M 1052.5,456.5 C 1120.06,620.279 1187.06,784.279 1253.5,948.5C 1228.82,948.833 1204.16,948.5 1179.5,947.5C 1160.59,898.277 1141.59,849.111 1122.5,800C 1053.83,799.333 985.167,799.333 916.5,800C 898.21,849.035 880.21,898.202 862.5,947.5C 839.5,948.833 816.5,948.833 793.5,947.5C 856.37,784.221 919.036,620.888 981.5,457.5C 1005.09,456.511 1028.76,456.177 1052.5,456.5 Z"/></g>
<g><path style="opacity:1" fill="#f0f0f0" d="M 1101.5,745.5 C 1046.33,745.832 991.331,745.499 936.5,744.5C 953.702,697.089 971.202,649.756 989,602.5C 1000.4,571.832 1009.4,540.499 1016,508.5C 1022.47,528.896 1029.13,549.229 1036,569.5C 1058.12,628.078 1079.96,686.745 1101.5,745.5 Z"/></g>
<g><path style="opacity:1" fill="#a9a9a9" d="M 936.5,744.5 C 991.331,745.499 1046.33,745.832 1101.5,745.5C 1074.74,746.171 1047.24,746.504 1019,746.5C 991.167,746.167 963.333,745.833 935.5,745.5C 935.624,744.893 935.957,744.56 936.5,744.5 Z"/></g>
<g><path style="opacity:1" fill="#fec002" d="M 309.5,1165.5 C 307.833,1165.5 306.167,1165.5 304.5,1165.5C 303.43,1150.8 302.097,1136.14 300.5,1121.5C 651.226,1089.08 1001.89,1056.08 1352.5,1022.5C 1354.69,1037.1 1356.36,1051.76 1357.5,1066.5C 1008.17,1099.5 658.835,1132.5 309.5,1165.5 Z"/></g>
<g><path style="opacity:1" fill="#fec001" d="M 1355.5,1089.5 C 1357.45,1089.23 1358.95,1089.89 1360,1091.5C 1361.11,1106.56 1362.61,1121.56 1364.5,1136.5C 1013.55,1170.31 662.553,1203.65 311.5,1236.5C 309.77,1220.54 308.437,1204.54 307.5,1188.5C 657.016,1156.15 1006.35,1123.15 1355.5,1089.5 Z"/></g>
<g><path style="opacity:1" fill="#f6e0a0" d="M 304.5,1165.5 C 306.167,1165.5 307.833,1165.5 309.5,1165.5C 308.432,1166.43 307.099,1166.77 305.5,1166.5C 305.663,1168.86 305.497,1171.19 305,1173.5C 304.503,1170.85 304.336,1168.19 304.5,1165.5 Z"/></g>
</svg>
