<?xml version="1.0" encoding="UTF-8"?>
<!DOCTYPE svg PUBLIC "-//W3C//DTD SVG 1.1//EN" "http://www.w3.org/Graphics/SVG/1.1/DTD/svg11.dtd">
<svg xmlns="http://www.w3.org/2000/svg" version="1.1" width="2404px" height="1901px" style="shape-rendering:geometricPrecision; text-rendering:geometricPrecision; image-rendering:optimizeQuality; fill-rule:evenodd; clip-rule:evenodd" xmlns:xlink="http://www.w3.org/1999/xlink">
<g><path style="opacity:1" fill="#991841" d="M 1520.5,1853.5 C 1531.83,1869.17 1543.17,1884.83 1554.5,1900.5C 1554.17,1900.5 1553.83,1900.5 1553.5,1900.5C 1038.8,1683.2 523.804,1466.37 8.5,1250C 6.16667,1249.67 3.83333,1249.33 1.5,1249C 2.65367,1248.09 2.48701,1247.25 1,1246.5C 0.5,836.5 0.333333,426.5 0.5,16.5C 795.167,16.6667 1589.83,16.5 2384.5,16C 2390.33,10.8333 2396.17,5.66667 2402,0.5C 2400.64,5.88333 2398.47,11.05 2395.5,16C 2397.83,16.3333 2400.17,16.6667 2402.5,17C 2398.76,20.6167 2394.93,24.1167 2391,27.5C 2113.36,649.274 1835.86,1271.11 1558.5,1893C 1557.11,1895.78 1555.61,1895.95 1554,1893.5C 1543.35,1879.68 1532.18,1866.35 1520.5,1853.5 Z M 1513.5,1844.5 C 1514.91,1844.97 1515.57,1845.97 1515.5,1847.5C 1514.09,1847.03 1513.43,1846.03 1513.5,1844.5 Z M 1516.5,1848.5 C 1518.59,1849.58 1519.92,1851.25 1520.5,1853.5C 1518.41,1852.42 1517.08,1850.75 1516.5,1848.5 Z"/></g>
</svg>
