<?xml version="1.0" encoding="UTF-8"?>
<!DOCTYPE svg PUBLIC "-//W3C//DTD SVG 1.1//EN" "http://www.w3.org/Graphics/SVG/1.1/DTD/svg11.dtd">
<svg xmlns="http://www.w3.org/2000/svg" version="1.1" width="370px" height="400px" style="shape-rendering:geometricPrecision; text-rendering:geometricPrecision; image-rendering:optimizeQuality; fill-rule:evenodd; clip-rule:evenodd" xmlns:xlink="http://www.w3.org/1999/xlink">
<g><path style="opacity:1" fill="#010101" d="M 351.5,58.5 C 351.653,64.8692 351.32,71.2026 350.5,77.5C 347.965,90.6384 344.965,103.638 341.5,116.5C 339.926,118.102 339.259,120.102 339.5,122.5C 339.326,124.861 338.993,127.194 338.5,129.5C 336.783,132.845 336.116,136.511 336.5,140.5C 336.269,145.698 335.103,150.698 333,155.5C 327.95,167.267 322.117,178.601 315.5,189.5C 284.167,189.5 252.833,189.5 221.5,189.5C 221.167,189.5 220.833,189.5 220.5,189.5C 218.385,163.215 204.385,147.382 178.5,142C 149.351,138.734 130.017,150.901 120.5,178.5C 118.918,181.876 118.251,185.542 118.5,189.5C 87.5,189.5 56.5,189.5 25.5,189.5C 25.5,153.833 25.5,118.167 25.5,82.5C 90.8342,82.6667 156.168,82.5 221.5,82C 222.416,81.7216 223.082,81.2216 223.5,80.5C 230.09,77.8716 236.423,74.7049 242.5,71C 246.558,69.4438 250.725,68.2772 255,67.5C 262.517,68.1679 270.017,69.0013 277.5,70C 281.58,72.0285 285.246,74.5285 288.5,77.5C 288.918,78.2216 289.584,78.7216 290.5,79C 295.167,79.6667 299.833,79.6667 304.5,79C 305.416,78.7216 306.082,78.2216 306.5,77.5C 308.308,76.0821 308.975,74.0821 308.5,71.5C 310.656,65.8457 314.656,62.0124 320.5,60C 325.334,60.0962 330.167,60.5962 335,61.5C 340.026,60.8806 344.859,59.5473 349.5,57.5C 350.416,57.5427 351.083,57.8761 351.5,58.5 Z"/></g>
<g><path style="opacity:0.421" fill="#959595" d="M 351.5,58.5 C 352.164,60.9779 352.497,63.6445 352.5,66.5C 352.706,70.4687 352.039,74.1354 350.5,77.5C 351.32,71.2026 351.653,64.8692 351.5,58.5 Z"/></g>
<g><path style="opacity:0.182" fill="#a1a1a1" d="M 308.5,71.5 C 308.975,74.0821 308.308,76.0821 306.5,77.5C 307.048,75.3736 307.715,73.3736 308.5,71.5 Z"/></g>
<g><path style="opacity:0.754" fill="#565656" d="M 288.5,77.5 C 294.514,78.7028 300.514,78.7028 306.5,77.5C 306.082,78.2216 305.416,78.7216 304.5,79C 299.833,79.6667 295.167,79.6667 290.5,79C 289.584,78.7216 288.918,78.2216 288.5,77.5 Z"/></g>
<g><path style="opacity:0.997" fill="#616161" d="M 223.5,80.5 C 223.082,81.2216 222.416,81.7216 221.5,82C 156.168,82.5 90.8342,82.6667 25.5,82.5C 25.5,118.167 25.5,153.833 25.5,189.5C 25.1667,189.5 24.8333,189.5 24.5,189.5C 24.1668,153.494 24.5001,117.494 25.5,81.5C 91.4498,81.2724 157.45,80.9391 223.5,80.5 Z"/></g>
<g><path style="opacity:0.616" fill="#7e7e7e" d="M 341.5,116.5 C 341.405,118.786 340.738,120.786 339.5,122.5C 339.259,120.102 339.926,118.102 341.5,116.5 Z"/></g>
<g><path style="opacity:0.486" fill="#8d8d8d" d="M 338.5,129.5 C 338.192,133.36 337.525,137.026 336.5,140.5C 336.116,136.511 336.783,132.845 338.5,129.5 Z"/></g>
<g><path style="opacity:1" fill="#fac730" d="M 220.5,189.5 C 219.91,218.257 205.577,235.757 177.5,242C 152.378,244.858 134.211,235.025 123,212.5C 120.882,207.362 119.715,202.029 119.5,196.5C 119.701,190.491 120.034,184.491 120.5,178.5C 130.017,150.901 149.351,138.734 178.5,142C 204.385,147.382 218.385,163.215 220.5,189.5 Z"/></g>
<g><path style="opacity:1" fill="#b98c25" d="M 120.5,178.5 C 120.034,184.491 119.701,190.491 119.5,196.5C 118.532,194.393 118.198,192.059 118.5,189.5C 118.251,185.542 118.918,181.876 120.5,178.5 Z"/></g>
<g><path style="opacity:0.998" fill="#9a3831" d="M 221.5,189.5 C 252.833,189.5 284.167,189.5 315.5,189.5C 315.167,190.5 314.5,191.167 313.5,191.5C 282.833,190.833 252.167,190.167 221.5,189.5 Z"/></g>
<g><path style="opacity:0.467" fill="#dc837d" d="M 24.5,189.5 C 24.8333,189.5 25.1667,189.5 25.5,189.5C 25.1825,205.578 25.5159,221.578 26.5,237.5C 24.5152,221.868 23.8486,205.868 24.5,189.5 Z"/></g>
<g><path style="opacity:1" fill="#c73b31" d="M 25.5,189.5 C 56.5,189.5 87.5,189.5 118.5,189.5C 118.198,192.059 118.532,194.393 119.5,196.5C 119.715,202.029 120.882,207.362 123,212.5C 134.211,235.025 152.378,244.858 177.5,242C 205.577,235.757 219.91,218.257 220.5,189.5C 220.833,189.5 221.167,189.5 221.5,189.5C 252.167,190.167 282.833,190.833 313.5,191.5C 310.009,191.483 307.342,192.983 305.5,196C 306.308,196.308 306.975,196.808 307.5,197.5C 305.833,198.667 304.167,199.833 302.5,201C 302.5,202 302.5,203 302.5,204C 301.672,204.915 300.672,205.581 299.5,206C 300.406,207.699 300.739,209.533 300.5,211.5C 300.5,212.167 300.167,212.5 299.5,212.5C 298.516,209.93 297.349,209.93 296,212.5C 295.383,213.449 295.549,214.282 296.5,215C 293.179,218.009 291.512,221.009 291.5,224C 289.578,225.46 288.911,227.127 289.5,229C 285.753,239.381 281.42,249.881 276.5,260.5C 276.709,261.086 277.043,261.586 277.5,262C 275.128,267.66 271.795,273.16 267.5,278.5C 267.838,280.655 267.838,282.989 267.5,285.5C 260.516,300.756 256.849,316.756 256.5,333.5C 255.034,334.347 254.2,335.68 254,337.5C 251.601,336.751 249.101,335.418 246.5,333.5C 245.914,333.709 245.414,334.043 245,334.5C 240.718,331.104 236.051,328.437 231,326.5C 230.667,326.833 230.333,327.167 230,327.5C 225.149,324.463 219.983,322.13 214.5,320.5C 213.493,316.328 212.16,311.995 210.5,307.5C 211.718,306.197 211.385,305.197 209.5,304.5C 210.476,302.877 209.976,301.543 208,300.5C 207.617,301.056 207.117,301.389 206.5,301.5C 206.785,299.712 206.452,298.045 205.5,296.5C 204.408,295.169 203.074,294.336 201.5,294C 194.105,293.006 187.271,293.839 181,296.5C 178.989,295.283 176.989,295.616 175,297.5C 171.667,296.833 168.333,296.167 165,295.5C 163.657,296.214 162.324,295.88 161,294.5C 160,294.833 159,295.167 158,295.5C 157.667,294.833 157.333,294.167 157,293.5C 155.103,295.016 152.936,295.683 150.5,295.5C 149.833,295.5 149.167,295.5 148.5,295.5C 145.618,294.087 142.451,293.421 139,293.5C 136.967,293.506 135.134,293.839 133.5,294.5C 130.058,296.888 126.392,298.721 122.5,300C 110.083,290.921 98.2496,281.087 87,270.5C 86.5172,269.552 86.3505,268.552 86.5,267.5C 86.2606,265.533 86.5939,263.699 87.5,262C 85.7887,260.565 84.622,258.731 84,256.5C 82.1246,255.258 80.2913,253.924 78.5,252.5C 76.2966,252.587 74.1299,252.587 72,252.5C 71.6532,254.18 70.6532,255.18 69,255.5C 66.7336,255.86 64.5669,255.193 62.5,253.5C 60.7341,251.229 58.7341,249.063 56.5,247C 50.9608,244.653 45.2941,242.82 39.5,241.5C 37.4855,240.076 35.1522,239.41 32.5,239.5C 30.2143,239.405 28.2143,238.738 26.5,237.5C 25.5159,221.578 25.1825,205.578 25.5,189.5 Z"/></g>
<g><path style="opacity:0.975" fill="#d2594d" d="M 313.5,191.5 C 308.666,197.834 304.332,204.5 300.5,211.5C 300.739,209.533 300.406,207.699 299.5,206C 300.672,205.581 301.672,204.915 302.5,204C 302.5,203 302.5,202 302.5,201C 304.167,199.833 305.833,198.667 307.5,197.5C 306.975,196.808 306.308,196.308 305.5,196C 307.342,192.983 310.009,191.483 313.5,191.5 Z"/></g>
<g><path style="opacity:0.987" fill="#d2584c" d="M 299.5,212.5 C 297.301,217.901 294.801,223.235 292,228.5C 286.506,248.803 278.34,267.803 267.5,285.5C 267.838,282.989 267.838,280.655 267.5,278.5C 271.795,273.16 275.128,267.66 277.5,262C 277.043,261.586 276.709,261.086 276.5,260.5C 281.42,249.881 285.753,239.381 289.5,229C 288.911,227.127 289.578,225.46 291.5,224C 291.512,221.009 293.179,218.009 296.5,215C 295.549,214.282 295.383,213.449 296,212.5C 297.349,209.93 298.516,209.93 299.5,212.5 Z"/></g>
<g><path style="opacity:0.506" fill="#de8880" d="M 32.5,239.5 C 35.1522,239.41 37.4855,240.076 39.5,241.5C 36.8478,241.59 34.5145,240.924 32.5,239.5 Z"/></g>
<g><path style="opacity:0.989" fill="#d45f52" d="M 86.5,267.5 C 85.6932,264.704 84.6932,261.87 83.5,259C 80.9454,257.556 78.2787,256.389 75.5,255.5C 72.6112,256.389 69.9446,257.722 67.5,259.5C 64.8841,258.256 63.2175,256.256 62.5,253.5C 64.5669,255.193 66.7336,255.86 69,255.5C 70.6532,255.18 71.6532,254.18 72,252.5C 74.1299,252.587 76.2966,252.587 78.5,252.5C 80.2913,253.924 82.1246,255.258 84,256.5C 84.622,258.731 85.7887,260.565 87.5,262C 86.5939,263.699 86.2606,265.533 86.5,267.5 Z"/></g>
<g><path style="opacity:1" fill="#271f20" d="M 237.5,267.5 C 238.552,267.351 239.552,267.517 240.5,268C 242.179,270.201 244.179,272.034 246.5,273.5C 244.433,274.134 242.6,275.134 241,276.5C 239.206,282.713 237.873,289.046 237,295.5C 236.586,295.957 236.086,296.291 235.5,296.5C 227.407,290.676 225.241,283.009 229,273.5C 231.736,271.248 234.569,269.248 237.5,267.5 Z"/></g>
<g><path style="opacity:0.514" fill="#da7971" d="M 133.5,294.5 C 135.134,293.839 136.967,293.506 139,293.5C 142.451,293.421 145.618,294.087 148.5,295.5C 143.527,294.836 138.527,294.503 133.5,294.5 Z"/></g>
<g><path style="opacity:0.983" fill="#d05448" d="M 206.5,301.5 C 205.028,299.866 203.362,298.366 201.5,297C 191.145,297.216 180.812,298.049 170.5,299.5C 163.535,299.01 156.868,297.677 150.5,295.5C 152.936,295.683 155.103,295.016 157,293.5C 157.333,294.167 157.667,294.833 158,295.5C 159,295.167 160,294.833 161,294.5C 162.324,295.88 163.657,296.214 165,295.5C 168.333,296.167 171.667,296.833 175,297.5C 176.989,295.616 178.989,295.283 181,296.5C 187.271,293.839 194.105,293.006 201.5,294C 203.074,294.336 204.408,295.169 205.5,296.5C 206.452,298.045 206.785,299.712 206.5,301.5 Z"/></g>
<g><path style="opacity:0.982" fill="#d05347" d="M 256.5,333.5 C 256.5,335.833 256.5,338.167 256.5,340.5C 254.801,340.66 253.134,340.494 251.5,340C 238.833,334.333 226.167,328.667 213.5,323C 211.683,321.2 210.516,319.034 210,316.5C 208.986,311.446 207.819,306.446 206.5,301.5C 207.117,301.389 207.617,301.056 208,300.5C 209.976,301.543 210.476,302.877 209.5,304.5C 211.385,305.197 211.718,306.197 210.5,307.5C 212.16,311.995 213.493,316.328 214.5,320.5C 219.983,322.13 225.149,324.463 230,327.5C 230.333,327.167 230.667,326.833 231,326.5C 236.051,328.437 240.718,331.104 245,334.5C 245.414,334.043 245.914,333.709 246.5,333.5C 249.101,335.418 251.601,336.751 254,337.5C 254.2,335.68 255.034,334.347 256.5,333.5 Z"/></g>
</svg>
